      <svg
        width="35"
        height="35"
        viewBox="0 0 44 44"
        fill="none"
        xmlns="http://www.w3.org/2000/svg"
      >
        <g clipPath="url(#clip0_189_190)">
          <path
            d="M10.6722 9.00168C17.8185 3.93252 28.032 4.34685 34.6393 9.98435C41.3622 15.7172 42.2807 25.0874 36.7513 31.7955C31.541 38.115 22.1488 40.1977 14.3278 36.938L13.9025 36.7529L5.88166 38.4597L5.74416 38.4835L5.54249 38.5L5.33533 38.4927L5.25466 38.4835L5.05299 38.4469L4.86049 38.3845L4.67716 38.3039L4.53783 38.2269L4.33983 38.0857L4.19133 37.95L4.05749 37.7979L3.96033 37.6604L3.84116 37.4495L3.76416 37.2552L3.70733 37.048L3.68349 36.9105L3.66699 36.7089L3.67433 36.5017L3.68349 36.421L3.72016 36.2194L3.76049 36.0874L5.86883 29.7605L5.82849 29.6945C1.77683 22.825 3.61199 14.3092 10.2487 9.31152L10.6703 9.00352L10.6722 9.00168Z"
            fill="black"
          />
        </g>
        <defs>
          <clipPath id="clip0_189_190">
            <rect width="44" height="44" fill="white" />
          </clipPath>
        </defs>
      </svg>