      <svg
        width="35"
        height="35"
        viewBox="0 0 44 44"
        fill="none"
        xmlns="http://www.w3.org/2000/svg"
      >
        <g clipPath="url(#clip0_189_185)">
          <path
            d="M23.8337 5.5C25.2365 5.49992 26.5864 6.03593 27.6071 6.99835C28.6278 7.96078 29.2422 9.27686 29.3245 10.6773L29.3337 11V18.3333H33.0003C34.3481 18.3331 35.649 18.8278 36.6561 19.7233C37.6632 20.6189 38.3064 21.8531 38.4637 23.1917L38.4912 23.5107L38.5003 23.8333L38.4637 24.1927L36.6193 33.418C35.9208 36.399 33.8657 38.544 31.4677 38.5147L31.167 38.5H16.5003C16.0513 38.4999 15.6179 38.3351 15.2823 38.0367C14.9467 37.7383 14.7324 37.3271 14.6798 36.8812L14.667 36.6667L14.6688 19.184C14.6692 18.8625 14.754 18.5467 14.9149 18.2684C15.0758 17.9901 15.3071 17.7589 15.5855 17.5982C16.3673 17.1467 17.0258 16.5095 17.5029 15.7431C17.9799 14.9766 18.2609 14.1045 18.3208 13.2037L18.3337 12.8333V11C18.3337 9.54131 18.9131 8.14236 19.9446 7.11091C20.976 6.07946 22.375 5.5 23.8337 5.5Z"
            fill="black"
          />
          <path
            d="M9.16699 18.3333C9.61604 18.3334 10.0494 18.4982 10.385 18.7966C10.7206 19.095 10.935 19.5062 10.9875 19.9521L11.0003 20.1666V36.6666C11.0003 37.1157 10.8354 37.5491 10.537 37.8847C10.2386 38.2202 9.82745 38.4346 9.38149 38.4871L9.16699 38.5H7.33366C6.4086 38.5003 5.51762 38.1509 4.83932 37.5219C4.16102 36.8929 3.74554 36.0308 3.67616 35.1083L3.66699 34.8333V22C3.6667 21.0749 4.01607 20.1839 4.64507 19.5056C5.27407 18.8273 6.13621 18.4119 7.05866 18.3425L7.33366 18.3333H9.16699Z"
            fill="black"
          />
        </g>
        <defs>
          <clipPath id="clip0_189_185">
            <rect width="44" height="44" fill="white" />
          </clipPath>
        </defs>
      </svg>