<svg xmlns="http://www.w3.org/2000/svg" viewBox="0 0 48 60" x="0px" y="0px"><defs><style>.cls-1{fill:none;}</style></defs><title>near me</title><g data-name="Livello 2"><g><rect class="cls-1" width="48" height=""/><path d="M35.67,11.5a.85.85,0,0,1,.69.39.81.81,0,0,1,.07.78L26.56,36a.84.84,0,0,1-.78.51.79.79,0,0,1-.66-.33l-2.76-8.31a3.55,3.55,0,0,0-2.22-2.22l-8.31-2.76a.82.82,0,0,1-.33-.72.83.83,0,0,1,.51-.72l23.32-9.87a.86.86,0,0,1,.34-.07m0-1.5a2.37,2.37,0,0,0-.92.19L11.42,20.06a2.34,2.34,0,0,0-.24,4.18l8.48,2.83a2,2,0,0,1,1.27,1.27l2.83,8.48a2.34,2.34,0,0,0,4.18-.24l9.87-23.33A2.34,2.34,0,0,0,35.67,10Z"/></g></g><text x="0" y="63" fill="#000000" font-size="5px" font-weight="bold" font-family="'Helvetica Neue', Helvetica, Arial-Unicode, Arial, Sans-serif">Created by Alessandro Curci</text><text x="0" y="68" fill="#000000" font-size="5px" font-weight="bold" font-family="'Helvetica Neue', Helvetica, Arial-Unicode, Arial, Sans-serif">from the Noun Project</text></svg>